HIERARCHY
ROOT Hips
{
 OFFSET 0.000000 0.000000 0.000000
 CHANNELS 6 Xposition Yposition Zposition Yrotation Xrotation Zrotation
 JOINT Chest
 {
  OFFSET 0.000000 9.585900 0.002600
  CHANNELS 3 Yrotation Xrotation Zrotation
  JOINT Chest2
  {
   OFFSET 0.000000 9.601200 -0.005300
   CHANNELS 3 Yrotation Xrotation Zrotation
   JOINT Chest3
   {
    OFFSET 0.000000 9.561800 0.000000
    CHANNELS 3 Yrotation Xrotation Zrotation
    JOINT Chest4
    {
     OFFSET 0.000000 9.552100 0.000000
     CHANNELS 3 Yrotation Xrotation Zrotation
     JOINT Neck
     {
      OFFSET 0.000000 14.453000 0.000000
      CHANNELS 3 Yrotation Xrotation Zrotation
      JOINT Head
      {
       OFFSET 0.000000 8.936500 -0.011300
       CHANNELS 3 Yrotation Xrotation Zrotation
       End Site
       {
        OFFSET 0.000000 17.073600 -0.006000
       }
      }
     }
     JOINT RightCollar
     {
      OFFSET -2.921100 9.558500 0.000000
      CHANNELS 3 Yrotation Xrotation Zrotation
      JOINT RightShoulder
      {
       OFFSET -13.519700 0.000000 0.000000
       CHANNELS 3 Yrotation Xrotation Zrotation
       JOINT RightElbow
       {
        OFFSET 0.000000 -29.696600 0.000000
        CHANNELS 3 Yrotation Xrotation Zrotation
        JOINT RightWrist
        {
         OFFSET 0.000000 -24.004700 0.000000
         CHANNELS 3 Yrotation Xrotation Zrotation
         End Site
         {
          OFFSET 0.000000 -17.728500 0.000000
         }
        }
       }
      }
     }
     JOINT LeftCollar
     {
      OFFSET 2.921100 9.558500 0.000000
      CHANNELS 3 Yrotation Xrotation Zrotation
      JOINT LeftShoulder
      {
       OFFSET 13.519700 0.000000 0.000000
       CHANNELS 3 Yrotation Xrotation Zrotation
       JOINT LeftElbow
       {
        OFFSET 0.000000 -29.696600 0.000000
        CHANNELS 3 Yrotation Xrotation Zrotation
        JOINT LeftWrist
        {
         OFFSET 0.000000 -24.004700 0.000000
         CHANNELS 3 Yrotation Xrotation Zrotation
         End Site
         {
          OFFSET 0.000000 -17.728500 0.000000
         }
        }
       }
      }
     }
    }
   }
  }
 }
 JOINT RightHip
 {
  OFFSET -7.771700 -0.012900 -0.001300
  CHANNELS 3 Yrotation Xrotation Zrotation
  JOINT RightKnee
  {
   OFFSET 0.000000 -40.869800 0.001200
   CHANNELS 3 Yrotation Xrotation Zrotation
   JOINT RightAnkle
   {
    OFFSET 0.000000 -39.717900 0.002100
    CHANNELS 3 Yrotation Xrotation Zrotation
    JOINT RightToe
    {
     OFFSET 0.000000 -4.965400 11.033500
     CHANNELS 3 Yrotation Xrotation Zrotation
     End Site
     {
      OFFSET 0.000000 -1.423100 5.872300
     }
    }
   }
  }
 }
 JOINT LeftHip
 {
  OFFSET 7.771700 -0.012900 -0.001300
  CHANNELS 3 Yrotation Xrotation Zrotation
  JOINT LeftKnee
  {
   OFFSET 0.000000 -40.869800 0.001200
   CHANNELS 3 Yrotation Xrotation Zrotation
   JOINT LeftAnkle
   {
    OFFSET 0.000000 -39.717900 0.002100
    CHANNELS 3 Yrotation Xrotation Zrotation
    JOINT LeftToe
    {
     OFFSET 0.000000 -4.965400 11.033500
     CHANNELS 3 Yrotation Xrotation Zrotation
     End Site
     {
      OFFSET 0.000000 -1.423100 5.872300
     }
    }
   }
  }
 }
}
MOTION
Frames: 7
Frame Time: 0.008333
-20.165128 57.970955 13.317100 175.281262 -47.567690 -3.398284 3.674359 22.054249 2.631491 1.927582 12.623033 1.381704 2.474278 15.769260 1.804599 1.926378 12.621825 1.384284 1.209360 15.244265 3.925266 0.801189 -7.458277 6.922538 4.001978 2.818885 0.240847 -0.237093 -17.545594 -9.166023 -25.074362 -44.195126 73.801328 11.289846 0.824341 -10.048672 -8.614651 -1.212414 -1.104044 -0.961417 -16.456798 8.024691 22.982203 -19.870843 -73.549517 16.969213 -9.430779 25.805805 1.864394 -24.507210 -1.575576 -32.919907 73.539103 -36.770697 6.551994 -13.171294 10.701789 0.073961 -0.074180 0.052447 -2.553203 -21.393060 8.518761 87.979715 84.017416 88.465400 0.172502 -22.745146 -16.229794 -0.000228 0.078002 0.009813
-20.165696 57.969900 13.315992 175.279436 -47.564883 -3.398945 3.674600 22.053770 2.636217 1.927556 12.621936 1.380473 2.473828 15.769335 1.805243 1.924387 12.621817 1.389139 1.209860 15.244428 3.916008 0.819291 -7.455182 6.864964 4.012118 2.807049 0.236048 -0.237156 -17.542301 -9.162512 -25.054145 -44.193466 73.777272 11.317675 0.873865 -10.007335 -8.621867 -1.214016 -1.101720 -0.955167 -16.444389 8.012589 22.995101 -19.875118 -73.542568 16.979122 -9.438318 25.821324 1.867357 -24.511231 -1.572355 -32.927508 73.542778 -36.776105 6.548057 -13.181238 10.699302 0.061497 -0.073814 0.049213 -2.551571 -21.396100 8.521354 87.997375 84.027382 88.479714 0.184325 -22.749619 -16.226024 -0.004325 0.081597 0.008698
-20.166074 57.969091 13.315057 175.279248 -47.563911 -3.400979 3.672631 22.052944 2.647841 1.923397 12.622280 1.381566 2.468656 15.769794 1.806335 1.923371 12.622360 1.381417 1.210604 15.244846 3.908350 0.821571 -7.454842 6.855205 4.015491 2.801259 0.228253 -0.233523 -17.541417 -9.152348 -25.023745 -44.193492 73.746730 11.319426 0.872715 -10.001154 -8.621940 -1.214754 -1.107648 -0.960171 -16.429473 8.012531 23.011724 -19.879986 -73.541966 16.984451 -9.448965 25.841775 1.872767 -24.517192 -1.562338 -32.960181 73.552278 -36.807008 6.527953 -13.189058 10.696394 0.080729 -0.078151 0.052748 -2.550944 -21.397361 8.523427 88.009540 84.030086 88.490571 0.188583 -22.752465 -16.226225 0.000356 0.082917 0.009131
-20.167041 57.967951 13.314758 175.279886 -47.559666 -3.399819 3.671203 22.050767 2.652674 1.921031 12.622212 1.382687 2.466435 15.770997 1.811871 1.919492 12.620632 1.378836 1.214929 15.246903 3.891287 0.825271 -7.456798 6.830570 4.025172 2.791005 0.218217 -0.241896 -17.534553 -9.143675 -24.986296 -44.172483 73.706563 11.337121 0.867950 -9.994675 -8.628431 -1.213936 -1.108477 -0.958204 -16.418180 8.006670 23.033575 -19.872179 -73.508034 16.983427 -9.448966 25.830921 1.872804 -24.523829 -1.561054 -32.959850 73.558353 -36.810029 6.518585 -13.195015 10.697765 0.085965 -0.080942 0.050919 -2.549858 -21.402776 8.522719 88.030193 84.033496 88.508663 0.190348 -22.754344 -16.225233 -0.003107 0.083256 0.009788
-20.167642 57.967291 13.314480 175.280338 -47.558408 -3.400643 3.672961 22.055554 2.663379 1.918073 12.619269 1.378811 2.464765 15.769878 1.809618 1.923319 12.626762 1.390525 1.207015 15.240037 3.875312 0.836546 -7.456247 6.791610 4.024816 2.781377 0.203215 -0.248078 -17.533173 -9.139492 -24.976128 -44.165044 73.694288 11.362584 0.907078 -9.935146 -8.641129 -1.221515 -1.107863 -0.955457 -16.389014 8.001617 23.052989 -19.892895 -73.505066 16.995774 -9.454469 25.845177 1.871801 -24.526107 -1.559010 -32.948409 73.563301 -36.801408 6.513228 -13.199711 10.699963 0.075731 -0.084359 0.046233 -2.550093 -21.405145 8.523724 88.050458 84.038415 88.526632 0.193935 -22.755389 -16.223524 0.001981 0.082008 0.009028
-20.168028 57.966952 13.314387 175.279153 -47.558275 -3.401984 3.675961 22.058086 2.669940 1.917745 12.620435 1.381508 2.464522 15.771075 1.810860 1.919953 12.623465 1.385208 1.210516 15.242719 3.870028 0.835170 -7.460220 6.783532 4.029523 2.778155 0.201405 -0.255927 -17.532857 -9.123985 -24.955963 -44.160692 73.668075 11.362318 0.964030 -9.888517 -8.651094 -1.214337 -1.100412 -0.943696 -16.389392 7.994714 23.050804 -19.897314 -73.486785 17.010372 -9.457869 25.858351 1.867961 -24.527071 -1.551732 -32.945665 73.566709 -36.804526 6.516045 -13.208036 10.697061 0.077362 -0.091083 0.044493 -2.549940 -21.402486 8.527305 88.024635 84.043371 88.498558 0.193755 -22.761738 -16.223183 0.005229 0.086692 0.009944
-20.169758 57.966669 13.314437 175.271420 -47.557705 -3.391179 3.679849 22.061427 2.667972 1.921291 12.625810 1.389381 2.465227 15.772680 1.815596 1.915340 12.618237 1.380208 1.209879 15.244125 3.859120 0.828110 -7.466504 6.767310 4.026652 2.772388 0.193235 -0.263888 -17.533880 -9.111844 -24.931711 -44.145558 73.648228 11.376845 0.971054 -9.880213 -8.677516 -1.214469 -1.092832 -0.918901 -16.393555 7.980986 23.042678 -19.899820 -73.465445 17.024112 -9.461639 25.863263 1.869810 -24.532042 -1.550573 -32.961699 73.571114 -36.827746 6.509268 -13.213173 10.695597 0.079544 -0.091059 0.046508 -2.540538 -21.398906 8.512692 87.967867 84.040648 88.443153 0.208320 -22.768627 -16.226135 -0.004372 0.095881 0.007620
